REM DIRINDEX 1\2,1\3
REM DIRNAME cjc039,folder01,folder02
TITLE ""
FILE "3441-3460.mp3" MP3
  TRACK 01 AUDIO
    TITLE "0:"
    INDEX 01 00:00:00
  TRACK 02 AUDIO
    TITLE "2:cjc039_5881"
    INDEX 01 00:00:27
  TRACK 03 AUDIO
    TITLE "0:"
    INDEX 01 00:01:46
  TRACK 04 AUDIO
    TITLE "3:cjc039_5882"
    INDEX 01 00:02:22
  TRACK 05 AUDIO
    TITLE "0:"
    INDEX 01 00:05:05
  TRACK 06 AUDIO
    TITLE "2:cjc039_5883"
    INDEX 01 00:06:57
  TRACK 07 AUDIO
    TITLE "0:"
    INDEX 01 00:07:58
  TRACK 08 AUDIO
    TITLE "3:cjc039_5884"
    INDEX 01 00:08:36
  TRACK 09 AUDIO
    TITLE "0:"
    INDEX 01 00:12:32
  TRACK 10 AUDIO
    TITLE "2:cjc039_5885"
    INDEX 01 00:14:09
  TRACK 11 AUDIO
    TITLE "0:"
    INDEX 01 00:15:19
  TRACK 12 AUDIO
    TITLE "3:cjc039_5886"
    INDEX 01 00:16:00
  TRACK 13 AUDIO
    TITLE "0:"
    INDEX 01 00:18:21
  TRACK 14 AUDIO
    TITLE "2:cjc039_5887"
    INDEX 01 00:20:02
  TRACK 15 AUDIO
    TITLE "0:"
    INDEX 01 00:21:35
  TRACK 16 AUDIO
    TITLE "3:cjc039_5888"
    INDEX 01 00:22:17
  TRACK 17 AUDIO
    TITLE "0:"
    INDEX 01 00:25:50
  TRACK 18 AUDIO
    TITLE "2:cjc039_5889"
    INDEX 01 00:27:24
  TRACK 19 AUDIO
    TITLE "0:"
    INDEX 01 00:28:49
  TRACK 20 AUDIO
    TITLE "3:cjc039_5890"
    INDEX 01 00:29:31
  TRACK 21 AUDIO
    TITLE "0:"
    INDEX 01 00:32:45
  TRACK 22 AUDIO
    TITLE "2:cjc039_5891"
    INDEX 01 00:34:24
  TRACK 23 AUDIO
    TITLE "0:"
    INDEX 01 00:35:64
  TRACK 24 AUDIO
    TITLE "3:cjc039_5892"
    INDEX 01 00:36:42
  TRACK 25 AUDIO
    TITLE "0:"
    INDEX 01 00:39:74
  TRACK 26 AUDIO
    TITLE "2:cjc039_5893"
    INDEX 01 00:41:53
  TRACK 27 AUDIO
    TITLE "0:"
    INDEX 01 00:42:68
  TRACK 28 AUDIO
    TITLE "3:cjc039_5894"
    INDEX 01 00:43:42
  TRACK 29 AUDIO
    TITLE "0:"
    INDEX 01 00:45:71
  TRACK 30 AUDIO
    TITLE "2:cjc039_5895"
    INDEX 01 00:47:50
  TRACK 31 AUDIO
    TITLE "0:"
    INDEX 01 00:49:02
  TRACK 32 AUDIO
    TITLE "3:cjc039_5896"
    INDEX 01 00:49:61
  TRACK 33 AUDIO
    TITLE "0:"
    INDEX 01 00:53:47
  TRACK 34 AUDIO
    TITLE "2:cjc039_5897"
    INDEX 01 00:55:28
  TRACK 35 AUDIO
    TITLE "0:"
    INDEX 01 00:56:31
  TRACK 36 AUDIO
    TITLE "3:cjc039_5898"
    INDEX 01 00:57:09
  TRACK 37 AUDIO
    TITLE "0:"
    INDEX 01 00:59:38
  TRACK 38 AUDIO
    TITLE "2:cjc039_5899"
    INDEX 01 01:01:21
  TRACK 39 AUDIO
    TITLE "0:"
    INDEX 01 01:02:69
  TRACK 40 AUDIO
    TITLE "3:cjc039_5900"
    INDEX 01 01:03:45
  TRACK 41 AUDIO
    TITLE "0:"
    INDEX 01 01:08:13
  TRACK 42 AUDIO
    TITLE "2:cjc039_5901"
    INDEX 01 01:09:61
  TRACK 43 AUDIO
    TITLE "0:"
    INDEX 01 01:11:07
  TRACK 44 AUDIO
    TITLE "3:cjc039_5902"
    INDEX 01 01:11:62
  TRACK 45 AUDIO
    TITLE "0:"
    INDEX 01 01:15:05
  TRACK 46 AUDIO
    TITLE "2:cjc039_5903"
    INDEX 01 01:16:58
  TRACK 47 AUDIO
    TITLE "0:"
    INDEX 01 01:18:62
  TRACK 48 AUDIO
    TITLE "3:cjc039_5904"
    INDEX 01 01:19:36
  TRACK 49 AUDIO
    TITLE "0:"
    INDEX 01 01:24:08
  TRACK 50 AUDIO
    TITLE "2:cjc039_5905"
    INDEX 01 01:25:60
  TRACK 51 AUDIO
    TITLE "0:"
    INDEX 01 01:26:64
  TRACK 52 AUDIO
    TITLE "3:cjc039_5906"
    INDEX 01 01:27:40
  TRACK 53 AUDIO
    TITLE "0:"
    INDEX 01 01:31:02
  TRACK 54 AUDIO
    TITLE "2:cjc039_5907"
    INDEX 01 01:32:60
  TRACK 55 AUDIO
    TITLE "0:"
    INDEX 01 01:34:05
  TRACK 56 AUDIO
    TITLE "3:cjc039_5908"
    INDEX 01 01:34:55
  TRACK 57 AUDIO
    TITLE "0:"
    INDEX 01 01:38:08
  TRACK 58 AUDIO
    TITLE "2:cjc039_5909"
    INDEX 01 01:39:61
  TRACK 59 AUDIO
    TITLE "0:"
    INDEX 01 01:41:09
  TRACK 60 AUDIO
    TITLE "3:cjc039_5910"
    INDEX 01 01:41:59
  TRACK 61 AUDIO
    TITLE "0:"
    INDEX 01 01:45:22
  TRACK 62 AUDIO
    TITLE "2:cjc039_5911"
    INDEX 01 01:46:72
  TRACK 63 AUDIO
    TITLE "0:"
    INDEX 01 01:48:36
  TRACK 64 AUDIO
    TITLE "3:cjc039_5912"
    INDEX 01 01:49:16
  TRACK 65 AUDIO
    TITLE "0:"
    INDEX 01 01:53:06
  TRACK 66 AUDIO
    TITLE "2:cjc039_5913"
    INDEX 01 01:54:64
  TRACK 67 AUDIO
    TITLE "0:"
    INDEX 01 01:56:02
  TRACK 68 AUDIO
    TITLE "3:cjc039_5914"
    INDEX 01 01:56:55
  TRACK 69 AUDIO
    TITLE "0:"
    INDEX 01 01:59:28
  TRACK 70 AUDIO
    TITLE "2:cjc039_5915"
    INDEX 01 02:01:03
  TRACK 71 AUDIO
    TITLE "0:"
    INDEX 01 02:02:26
  TRACK 72 AUDIO
    TITLE "3:cjc039_5916"
    INDEX 01 02:02:73
  TRACK 73 AUDIO
    TITLE "0:"
    INDEX 01 02:06:44
  TRACK 74 AUDIO
    TITLE "2:cjc039_5917"
    INDEX 01 02:08:17
  TRACK 75 AUDIO
    TITLE "0:"
    INDEX 01 02:09:22
  TRACK 76 AUDIO
    TITLE "3:cjc039_5918"
    INDEX 01 02:10:02
  TRACK 77 AUDIO
    TITLE "0:"
    INDEX 01 02:12:50
  TRACK 78 AUDIO
    TITLE "2:cjc039_5919"
    INDEX 01 02:14:28
  TRACK 79 AUDIO
    TITLE "0:"
    INDEX 01 02:15:35
  TRACK 80 AUDIO
    TITLE "3:cjc039_5920"
    INDEX 01 02:16:17
  TRACK 81 AUDIO
    TITLE "0:"
    INDEX 01 02:19:64
